<svg xmlns="http://www.w3.org/2000/svg" viewBox="0 0 29.55 29.01"><defs><style>.cls-1{fill:#fff;fill-rule:evenodd;}</style></defs><title>Ресурс 5</title><g id="Слой_2" data-name="Слой 2"><g id="Layer_1" data-name="Layer 1"><path class="cls-1" d="M12.46,16a1.52,1.52,0,1,1-1.52-1.52A1.52,1.52,0,0,1,12.46,16Zm6.16-1.52A1.52,1.52,0,1,0,20.13,16a1.52,1.52,0,0,0-1.52-1.52Zm10.94.67a2.62,2.62,0,0,0-1.37-2.31c0-4.09-1.22-7.29-3.55-9.5S19,0,14.78,0,7.24,1.11,4.93,3.3,1.4,8.71,1.37,12.81A2.62,2.62,0,0,0,0,15.11V18a2.62,2.62,0,0,0,2.62,2.62h1.9c1.88,5.23,6.7,8.4,10.25,8.4s8.37-3.16,10.25-8.4h1.9A2.62,2.62,0,0,0,29.55,18V15.11ZM24,16c0-.67,0-1.31-.09-1.92A10.85,10.85,0,0,0,18,11.87a3.87,3.87,0,0,1,.84,1.59c-1.63-1.29-4.84-1-7.26-3.86-.14-.16-.26-.31-.36-.45h0c-.43-.58-.58-.93-.59-.55a6.31,6.31,0,0,1-5,6.25c0,.36,0,.73,0,1.11a11.87,11.87,0,0,0,.62,3.82c1.46,1.76,3.88,2.26,6,2.39a2.73,2.73,0,0,1,2.32-1.07c1.41,0,2.55.81,2.55,1.81s-1.14,1.81-2.55,1.81a2.68,2.68,0,0,1-2.37-1.15,12.54,12.54,0,0,1-4.6-1c2.06,3,5.25,4.64,7.24,4.64,3.13,0,9.23-4,9.23-11.21Zm2.6-3.48h-1a12.59,12.59,0,0,0-2.33-5.91c-1.89-2.43-4.74-3.66-8.48-3.66S8.18,4.15,6.29,6.58A12.59,12.59,0,0,0,4,12.49H3C3.12,5.35,7.2,1.57,14.78,1.57S26.43,5.35,26.6,12.49Z"/></g></g></svg>