<svg xmlns="http://www.w3.org/2000/svg" viewBox="0 0 24.95 21.41"><defs><style>.cls-1{fill:#bacedb;fill-rule:evenodd;}</style></defs><title>Ресурс 12</title><g id="Слой_2" data-name="Слой 2"><g id="Layer_1" data-name="Layer 1"><polygon class="cls-1" points="8.65 15.18 16.92 15.18 16.92 12.15 20.93 14.46 24.95 16.78 20.93 19.1 16.92 21.41 16.92 18.38 8.65 18.38 8.65 15.18"/><path class="cls-1" d="M12,9.66,2.84,1.6H21.07L12,9.66ZM16.12,8.1l6.13-5.43v9.39l1.6.92V2.4A2.4,2.4,0,0,0,23.28.83L23.22.75a.65.65,0,0,0-.15-.13A2.4,2.4,0,0,0,21.46,0H2.4A2.39,2.39,0,0,0,0,2.4V14.73a2.42,2.42,0,0,0,.16.87.74.74,0,0,0,.22.52l.16.13a2.39,2.39,0,0,0,1.86.88H5.64v-1.6H2.4l-.16,0L9,9.13l2.47,2.18a.69.69,0,0,0,.53.21,1.13,1.13,0,0,0,.53-.21l2.44-2.16.67.63a2,2,0,0,1,1.86-.43L16.12,8.1ZM1.6,2.62V13.89L7.76,8.08Z"/></g></g></svg>