<svg xmlns="http://www.w3.org/2000/svg" viewBox="0 0 30.99 26.9"><defs><style>.cls-1,.cls-2{fill:#fff;}.cls-2{fill-rule:evenodd;}</style></defs><title>Ресурс 1</title><g id="Слой_2" data-name="Слой 2"><g id="Layer_1" data-name="Layer 1"><rect class="cls-1" x="1.24" y="17.57" width="8.76" height="9.33" rx="1.43" ry="1.43"/><rect class="cls-1" x="11.73" y="14.15" width="8.76" height="12.76" rx="1.43" ry="1.43"/><rect class="cls-1" x="22.23" y="10.34" width="8.76" height="16.57" rx="1.43" ry="1.43"/><path class="cls-2" d="M29.75,0,23.34,1.59c-.51.12-.62.53-.25.9l1.37,1.34c.11.13,0,.31-.13.38A40.89,40.89,0,0,1,20.2,6.64c-10.29,5.37-18.78,5-18.9,5a1.24,1.24,0,0,0-.13,2.47h.6A44.06,44.06,0,0,0,21.35,8.83,41.88,41.88,0,0,0,26.05,6c.13-.09.35-.25.56,0l1.5,1.5c.37.37.77.26.89-.25L30.46.73C30.56.3,30.35,0,30,0h0Z"/></g></g></svg>