<svg xmlns="http://www.w3.org/2000/svg" viewBox="0 0 30.99 31.71"><defs><style>.cls-1,.cls-2{fill:#fff;}.cls-1{fill-rule:evenodd;}</style></defs><title>Ресурс 2</title><g id="Слой_2" data-name="Слой 2"><g id="Layer_1" data-name="Layer 1"><path class="cls-1" d="M30.94,10.64a2.77,2.77,0,0,0-2.77-2.75h-5.1A4.34,4.34,0,0,1,23.23,9l0,9.25a2.64,2.64,0,0,1-1.35,2.32V30.3a1.4,1.4,0,0,0,2.8,0V19.39a.3.3,0,0,1,.61,0V30.3a1.4,1.4,0,0,0,2.81,0c0-18.55,0-7.93,0-19.64a.24.24,0,0,1,.49,0l0,8.59a1.17,1.17,0,0,0,1.17,1.16h0A1.17,1.17,0,0,0,31,19.23Z"/><circle class="cls-2" cx="25.05" cy="4.7" r="2.42"/><path class="cls-1" d="M7.71,18.26,7.75,9a4.33,4.33,0,0,1,.15-1.12H2.81A2.77,2.77,0,0,0,0,10.64l0,8.59A1.17,1.17,0,0,0,1.16,20.4h0a1.17,1.17,0,0,0,1.17-1.16l0-8.59a.43.43,0,0,1,.45-.43V30.3a1.4,1.4,0,0,0,2.8,0V19.39a.3.3,0,0,1,.61,0V30.3a1.4,1.4,0,0,0,2.8,0V20.57A2.64,2.64,0,0,1,7.71,18.26Z"/><path class="cls-1" d="M3.53,4.7A2.42,2.42,0,1,0,6,2.27,2.42,2.42,0,0,0,3.53,4.7Z"/><path class="cls-1" d="M13.91,4.67a2.61,2.61,0,1,0-1-2.06A2.6,2.6,0,0,0,13.91,4.67Z"/><path class="cls-1" d="M18.87,6.05H12.11a3,3,0,0,0-3,3l0,9.25a1.26,1.26,0,0,0,1.25,1.27h0a1.26,1.26,0,0,0,1.26-1.25l0-9.25h0a.24.24,0,0,1,.49,0V30.2h0a1.51,1.51,0,0,0,3,0V18.45a.33.33,0,0,1,.65,0V30.2a1.51,1.51,0,1,0,3,0h0c0-5.4,0-15.51,0-21.17a.26.26,0,0,1,.53,0h0l0,9.25a1.26,1.26,0,0,0,1.26,1.25h0a1.26,1.26,0,0,0,1.25-1.27h0l0-9.25A3,3,0,0,0,18.87,6.05Z"/></g></g></svg>