<svg xmlns="http://www.w3.org/2000/svg" viewBox="0 0 28.22 28.22"><defs><style>.cls-1{fill:#fff;stroke:#bacedb;stroke-miterlimit:22.93;stroke-width:0.22px;fill-rule:evenodd;}</style></defs><title>Ресурс 6</title><g id="Слой_2" data-name="Слой 2"><g id="Layer_1" data-name="Layer 1"><path class="cls-1" d="M26.67,11.17l-2-.33a11.12,11.12,0,0,0-.79-1.91l1.16-1.62a1.72,1.72,0,0,0-.19-2.23L23.15,3.34a1.72,1.72,0,0,0-1.22-.51,1.7,1.7,0,0,0-1,.32L19.3,4.31a11,11,0,0,0-2-.81L17,1.55A1.73,1.73,0,0,0,15.29.11H12.82a1.73,1.73,0,0,0-1.71,1.45l-.34,2a10.78,10.78,0,0,0-1.9.8L7.27,3.18A1.73,1.73,0,0,0,5,3.37L3.29,5.11A1.73,1.73,0,0,0,3.1,7.34L4.27,9a10.85,10.85,0,0,0-.78,1.91l-1.94.33A1.73,1.73,0,0,0,.11,12.94V15.4a1.73,1.73,0,0,0,1.44,1.71l2,.34a10.81,10.81,0,0,0,.8,1.9l-1.15,1.6a1.72,1.72,0,0,0,.19,2.23l1.74,1.74a1.72,1.72,0,0,0,2.22.19L9,23.94a11.07,11.07,0,0,0,1.85.76l.33,2a1.73,1.73,0,0,0,1.71,1.44h2.47A1.73,1.73,0,0,0,17,26.66l.33-2a11.11,11.11,0,0,0,1.91-.79l1.62,1.16a1.73,1.73,0,0,0,2.23-.19l1.74-1.74a1.73,1.73,0,0,0,.19-2.23l-1.16-1.63a11,11,0,0,0,.79-1.91l2-.33a1.73,1.73,0,0,0,1.44-1.71V12.88a1.71,1.71,0,0,0-1.43-1.71Zm-.13,4.17a.15.15,0,0,1-.13.15L24,15.9a.79.79,0,0,0-.63.58,9.37,9.37,0,0,1-1,2.45.79.79,0,0,0,0,.86l1.44,2a.16.16,0,0,1,0,.2L22,23.77a.15.15,0,0,1-.11,0,.15.15,0,0,1-.09,0l-2-1.44a.79.79,0,0,0-.86,0,9.37,9.37,0,0,1-2.45,1,.78.78,0,0,0-.58.63l-.42,2.46a.15.15,0,0,1-.15.13H12.88a.15.15,0,0,1-.15-.13L12.32,24a.79.79,0,0,0-.58-.63,9.73,9.73,0,0,1-2.4-1,.81.81,0,0,0-.4-.11.77.77,0,0,0-.46.15l-2,1.46-.09,0a.16.16,0,0,1-.11,0L4.49,22.08a.16.16,0,0,1,0-.2l1.44-2A.8.8,0,0,0,6,19a9.26,9.26,0,0,1-1-2.44A.8.8,0,0,0,4.29,16l-2.47-.42a.15.15,0,0,1-.13-.15V12.94a.15.15,0,0,1,.13-.15l2.44-.41a.79.79,0,0,0,.64-.58,9.34,9.34,0,0,1,1-2.46.78.78,0,0,0,0-.85l-1.46-2a.16.16,0,0,1,0-.2L6.16,4.49a.15.15,0,0,1,.11,0,.14.14,0,0,1,.09,0l2,1.44a.8.8,0,0,0,.87,0,9.28,9.28,0,0,1,2.45-1,.8.8,0,0,0,.58-.63l.42-2.47a.15.15,0,0,1,.15-.13H15.3a.15.15,0,0,1,.15.13l.41,2.44a.79.79,0,0,0,.58.64,9.5,9.5,0,0,1,2.51,1,.79.79,0,0,0,.86,0l2-1.45.09,0a.16.16,0,0,1,.11,0l1.74,1.74a.16.16,0,0,1,0,.2l-1.44,2a.79.79,0,0,0,0,.86,9.37,9.37,0,0,1,1,2.45.78.78,0,0,0,.63.58l2.46.42a.15.15,0,0,1,.13.15v2.46Z"/><path class="cls-1" d="M14.11,10.09a4,4,0,1,0,4,4,4,4,0,0,0-4-4Zm0,7a3,3,0,1,1,3-3A3,3,0,0,1,14.11,17.08Z"/></g></g></svg>