<svg xmlns="http://www.w3.org/2000/svg" viewBox="0 0 25.49 22.9"><defs><style>.cls-1{fill:#bacedb;fill-rule:evenodd;}</style></defs><title>Ресурс 10</title><g id="Слой_2" data-name="Слой 2"><g id="Layer_1" data-name="Layer 1"><path class="cls-1" d="M18.73,9.38a6.76,6.76,0,1,1-4.78,11.54h0A6.76,6.76,0,0,1,18.73,9.38Zm3.36,3.39a4.76,4.76,0,0,0-6.73,0h0a4.76,4.76,0,0,0,6.73,6.73h0a4.76,4.76,0,0,0,0-6.73Z"/><path class="cls-1" d="M20.69,14,18.42,18,16.68,16a.42.42,0,1,0-.53.65l2.09,2.21a.43.43,0,0,0,.27.1h.06a.43.43,0,0,0,.29-.18l2.54-4.32a.42.42,0,0,0-.69-.48Z"/><path class="cls-1" d="M18.31,16.92l1.83-3.17a.62.62,0,0,1,.1-.15,1,1,0,0,1,1.36-.22l.1.08a1,1,0,0,1,.35.58v0a1,1,0,0,1-.17.78l-2.54,4.32a1,1,0,0,1-.27.26l0,0a1,1,0,0,1-.39.14H18.5a1,1,0,0,1-.3,0l0,0a1.06,1.06,0,0,1-.27-.15h0l-.09-.08-2.07-2.19a1,1,0,0,1-.33-.63v0a1,1,0,0,1,.23-.76h0a1,1,0,0,1,.68-.37h0a1,1,0,0,1,.74.22l.08.08Z"/><path class="cls-1" d="M1.6,2.62,7.76,8.08,1.6,13.89V2.62ZM0,2.4V14.73a2.42,2.42,0,0,0,.16.87.74.74,0,0,0,.22.52l.16.13a2.39,2.39,0,0,0,1.86.88H12a6.82,6.82,0,0,1-.07-1q0-.31,0-.61H2.4l-.16,0L9,9.13l2.47,2.18a.69.69,0,0,0,.53.21,1.13,1.13,0,0,0,.53-.21l2.44-2.16.92.87a6.72,6.72,0,0,1,1.73-.55L16.12,8.1l6.13-5.43v7.71a6.78,6.78,0,0,1,1.25,1l.35.38V2.4A2.4,2.4,0,0,0,23.28.83L23.22.75a.65.65,0,0,0-.15-.13A2.4,2.4,0,0,0,21.46,0H2.4A2.39,2.39,0,0,0,0,2.4ZM12,9.66,21.07,1.6H2.84Z"/></g></g></svg>