<svg xmlns="http://www.w3.org/2000/svg" viewBox="0 0 16.37 20.88"><defs><style>.cls-1{fill:#bacedb;fill-rule:evenodd;}</style></defs><title>Ресурс 14</title><g id="Слой_2" data-name="Слой 2"><g id="Layer_1" data-name="Layer 1"><path class="cls-1" d="M1.43,1.43H9.54V6.16a.68.68,0,0,0,.68.68h4.73V19.45H1.43v-18ZM14,5.48,12.44,3.94,10.89,2.39v3.1ZM.08,20.12a.68.68,0,0,0,.68.68H15.62a.68.68,0,0,0,.68-.68v-14a.68.68,0,0,0-.2-.48L10.69.28a.68.68,0,0,0-.48-.2H.76A.68.68,0,0,0,.08.76Z"/><path class="cls-1" d="M1.43,1.35H9.62V6.16a.59.59,0,0,0,.6.6H15V19.53q-6.83,0-13.67,0V1.35Zm8,.16H1.51V19.37H14.86V6.92H10.21a.76.76,0,0,1-.76-.76V1.51ZM14,5.57h.19L10.81,2.19V5.57ZM11,5.4h2.82L11,2.58V5.4ZM.16,20.12a.6.6,0,0,0,.6.6H15.62a.6.6,0,0,0,.6-.6v-14a.6.6,0,0,0,0-.23A.6.6,0,0,0,16,5.74L10.63.33a.59.59,0,0,0-.42-.17H.76a.6.6,0,0,0-.6.6V20.12Zm.06.53a.75.75,0,0,0,.53.22H15.62a.76.76,0,0,0,.76-.76v-14a.77.77,0,0,0-.22-.53L10.75.22A.76.76,0,0,0,10.21,0H.76A.76.76,0,0,0,0,.76V20.12A.75.75,0,0,0,.22,20.66Z"/><path class="cls-1" d="M13.06,10H3.72a.93.93,0,0,0,0,1.87h9.35a.93.93,0,0,0,0-1.87Z"/><path class="cls-1" d="M13.06,10.07H3.72a.85.85,0,1,0,0,1.71h9.35a.85.85,0,0,0,0-1.71ZM3.72,9.91h9.35a1,1,0,0,1,0,2H3.72a1,1,0,0,1,0-2Z"/><path class="cls-1" d="M8.84,13.61H3.72a.93.93,0,1,0,0,1.87H8.84a.93.93,0,1,0,0-1.87Z"/><path class="cls-1" d="M8.84,13.69H3.72a.85.85,0,1,0,0,1.71H8.84a.85.85,0,0,0,0-1.71Zm-5.12-.16H8.84a1,1,0,0,1,0,2H3.72a1,1,0,1,1,0-2Z"/></g></g></svg>