<svg xmlns="http://www.w3.org/2000/svg" viewBox="0 0 23.86 19.91"><defs><style>.cls-1{fill:#bacedb;fill-rule:evenodd;}</style></defs><title>Ресурс 13</title><g id="Слой_2" data-name="Слой 2"><g id="Layer_1" data-name="Layer 1"><path class="cls-1" d="M9,11.91l2.47,2.18a.69.69,0,0,0,.53.21,1.13,1.13,0,0,0,.53-.21l2.44-2.16-.14-.14a.83.83,0,0,1-.25-.59l-.94.8a2.61,2.61,0,0,1-3.35,0l-.9-.77a.77.77,0,0,1-.27.58Z"/><path class="cls-1" d="M22.26,5.45V16.67l1.17,1.11a.82.82,0,0,1,.23.74,2.23,2.23,0,0,0,.19-1V5.18a2.4,2.4,0,0,0-.58-1.57.82.82,0,0,1-.11,1Z"/><path class="cls-1" d="M21.46,18.31H2.4l-.16,0L9,11.91l.12-.11a.77.77,0,0,0,.27-.58l-.94-.8L4.12,6.79a2.27,2.27,0,0,1-.81-2l.09-.41a2.26,2.26,0,0,1,.12-.29,2.32,2.32,0,0,1,.42-.6,2.52,2.52,0,0,1,1.24-.7H2.4A2.39,2.39,0,0,0,0,5.18V17.51a2.42,2.42,0,0,0,.16.87.74.74,0,0,0,.22.52L.54,19a2.39,2.39,0,0,0,1.86.88H21.51A2.38,2.38,0,0,0,23.38,19l.1-.09a.83.83,0,0,0,.18-.38.82.82,0,0,0-.23-.74l-1.17-1.11-6.13-5.79,6.13-5.43.91-.8a.82.82,0,0,0,.11-1l-.21-.21a2.39,2.39,0,0,0-1.61-.62H18.71a2.44,2.44,0,0,1,1.76,1.6l.09.45c0,.07,0,.15,0,.22a2.29,2.29,0,0,1-.92,1.82l-4.21,3.57-.9.76a.83.83,0,0,0,.25.59l.14.14,6.73,6.35-.2,0ZM7.76,10.86,1.6,16.67V5.4Z"/><polygon class="cls-1" points="18.07 5.05 14.06 5.05 14.06 4.38 14.06 2.78 14.06 0 9.8 0 9.8 2.78 9.8 4.38 9.8 5.05 5.79 5.05 8.86 7.66 11.93 10.26 15 7.66 18.07 5.05"/></g></g></svg>