<svg xmlns="http://www.w3.org/2000/svg" viewBox="0 0 34.23 30.67"><defs><style>.cls-1{fill:#fff;fill-rule:evenodd;}.cls-2{fill:#bacedb;}</style></defs><title>Ресурс 3</title><g id="Слой_2" data-name="Слой 2"><g id="Layer_1" data-name="Layer 1"><path class="cls-1" d="M27.12,0H18.46a7.12,7.12,0,0,0-7,5.88,8.06,8.06,0,0,0-1.88.86,3.1,3.1,0,0,0-1.48,2.8h0v2.23h0l0,0c-.23.1-.35.06-.38.54s.06,2,.66,2.38a1.31,1.31,0,0,1,.18.62,3.22,3.22,0,0,0,.44,1.5,3.54,3.54,0,0,1,.48,2.35h0a1.13,1.13,0,0,0-.6.81l0,.13a8.44,8.44,0,0,1-.35,1,.53.53,0,0,1-.2.13l-.31.12A45.51,45.51,0,0,0,2.14,23.9C.38,24.87,0,30.11,0,30.28v0H0a.36.36,0,0,0,.36.35H25.91a.36.36,0,0,0,.36-.39c0-.17-.38-5.41-2.13-6.38a45.52,45.52,0,0,0-5.78-2.53l-.31-.12a.53.53,0,0,1-.2-.13,8.44,8.44,0,0,1-.35-1l0-.13a1.13,1.13,0,0,0-.6-.81h0a3.54,3.54,0,0,1,.48-2.35,3.22,3.22,0,0,0,.44-1.5,1.3,1.3,0,0,1,.18-.62,1.07,1.07,0,0,0,.38-.5h2.51V17a1.44,1.44,0,0,0,2.45,1l3.78-3.75h.06A7.11,7.11,0,1,0,27.12,0Zm0,12.52h-.76L22.55,16.3V12.52H18.62c0-.06,0-.12,0-.17,0-.49-.15-.44-.38-.54l0,0h0V9.55a2.77,2.77,0,0,0-.84-2.33c-.25-.19-.54-.37-.82-.55A4.12,4.12,0,0,1,15.6,6c-.31-.43-1.36-.47-1.79-.47l-.52,0a5.41,5.41,0,0,1,5.17-3.83h8.66a5.4,5.4,0,0,1,0,10.81Z"/><circle class="cls-2" cx="19.37" cy="7.18" r="1.06"/><circle class="cls-2" cx="22.79" cy="7.18" r="1.06"/><circle class="cls-2" cx="26.21" cy="7.18" r="1.06"/></g></g></svg>