<svg xmlns="http://www.w3.org/2000/svg" viewBox="0 0 21.19 21.27"><defs><style>.cls-1{fill:#bacedb;fill-rule:evenodd;}</style></defs><title>Ресурс 15</title><g id="Слой_2" data-name="Слой 2"><g id="Layer_1" data-name="Layer 1"><path class="cls-1" d="M4.4,14.08a22.18,22.18,0,0,0,7.37,5.78,11.48,11.48,0,0,0,4.13,1.22h.29a3.42,3.42,0,0,0,2.65-1.14l0,0a11.21,11.21,0,0,1,.84-.87c.2-.2.41-.4.61-.61a2.09,2.09,0,0,0,0-3.11l-2.6-2.6a2.11,2.11,0,0,0-1.52-.7,2.18,2.18,0,0,0-1.54.7l-1.55,1.55-.43-.23a5.32,5.32,0,0,1-.48-.26,16.41,16.41,0,0,1-3.92-3.57A9.44,9.44,0,0,1,6.94,8.11c.41-.37.79-.75,1.16-1.13l.4-.4A2.22,2.22,0,0,0,9.21,5a2.2,2.2,0,0,0-.72-1.56L7.2,2.17l-.44-.45c-.29-.29-.58-.6-.88-.87A2.16,2.16,0,0,0,4.36.19,2.22,2.22,0,0,0,2.81.86L1.2,2.48a3.33,3.33,0,0,0-1,2.13,8,8,0,0,0,.6,3.46,20.15,20.15,0,0,0,3.6,6ZM1.26,4.7a2.29,2.29,0,0,1,.69-1.47L3.56,1.61a1.17,1.17,0,0,1,.8-.37,1.11,1.11,0,0,1,.78.38c.29.27.56.55.86.85l.45.46L7.73,4.22A1.18,1.18,0,0,1,8.14,5a1.18,1.18,0,0,1-.41.81l-.4.41c-.4.41-.78.79-1.2,1.16l0,0a.85.85,0,0,0-.22,1v0A10.19,10.19,0,0,0,7.43,10.9a17.32,17.32,0,0,0,4.17,3.8,6.31,6.31,0,0,0,.57.31,5.35,5.35,0,0,1,.48.26l0,0a.9.9,0,0,0,.42.11.92.92,0,0,0,.65-.29l1.62-1.62a1.15,1.15,0,0,1,.79-.39,1.09,1.09,0,0,1,.77.39l2.61,2.61a1,1,0,0,1,0,1.63c-.18.19-.37.38-.58.58a12.5,12.5,0,0,0-.9.94A2.38,2.38,0,0,1,16.2,20H16a10.43,10.43,0,0,1-3.73-1.12,21.07,21.07,0,0,1-7-5.5A19.3,19.3,0,0,1,1.81,7.72,7,7,0,0,1,1.26,4.7Z"/><path class="cls-1" d="M4.55,14a22.38,22.38,0,0,0,3.37,3.27,21.82,21.82,0,0,0,3.95,2.46,15.71,15.71,0,0,0,1.84.75,9,9,0,0,0,2.22.45h.28a3.48,3.48,0,0,0,1.39-.27,3.28,3.28,0,0,0,1.12-.81h0a10.38,10.38,0,0,1,.79-.82l.37-.36.3-.3a2.08,2.08,0,0,0,.64-1.44,2,2,0,0,0-.65-1.41l-2.61-2.61a2.21,2.21,0,0,0-.66-.48,1.73,1.73,0,0,0-.73-.16,1.76,1.76,0,0,0-.73.16,2.32,2.32,0,0,0-.68.48l-1.65,1.65L13,14.44l-.4-.21-.27-.14L12.08,14A14.88,14.88,0,0,1,10,12.38a18.86,18.86,0,0,1-1.91-2,12.84,12.84,0,0,1-.8-1.12,7.68,7.68,0,0,1-.55-1l-.05-.12L6.81,8l.59-.56L8,6.85l.4-.4a2.45,2.45,0,0,0,.5-.7,1.7,1.7,0,0,0,0-1.47,2.4,2.4,0,0,0-.5-.69L7.07,2.3l-.88-.89L5.75,1h0A2.24,2.24,0,0,0,5.09.52a1.81,1.81,0,0,0-1.46,0A2.36,2.36,0,0,0,2.95,1L1.33,2.61a3.23,3.23,0,0,0-.65.92A3.2,3.2,0,0,0,.39,4.62,6.24,6.24,0,0,0,.47,6.2,10.26,10.26,0,0,0,1,8a17.61,17.61,0,0,0,1.43,3,23.61,23.61,0,0,0,2.13,3Zm3.14,3.56A22.78,22.78,0,0,1,4.26,14.2a24.12,24.12,0,0,1-2.17-3,17.94,17.94,0,0,1-1.46-3A10.68,10.68,0,0,1,.11,6.26,6.6,6.6,0,0,1,0,4.59,3.55,3.55,0,0,1,.34,3.38a3.6,3.6,0,0,1,.73-1L2.69.72A2.74,2.74,0,0,1,3.48.19a2.17,2.17,0,0,1,1.75,0A2.61,2.61,0,0,1,6,.72l.45.43L7.33,2,8.62,3.33a2.77,2.77,0,0,1,.57.8,2.07,2.07,0,0,1,0,1.78,2.81,2.81,0,0,1-.57.8l-.4.4-.57.57-.5.48A7.41,7.41,0,0,0,7.63,9a12.39,12.39,0,0,0,.77,1.08,18.46,18.46,0,0,0,1.87,2,14.57,14.57,0,0,0,2,1.54l.22.13.56.29,1.45-1.45A2.7,2.7,0,0,1,15.3,12a2.13,2.13,0,0,1,.88-.19,2.1,2.1,0,0,1,.88.2,2.57,2.57,0,0,1,.77.56l2.6,2.6a2.37,2.37,0,0,1,.75,1.67,2.45,2.45,0,0,1-.74,1.7l-.31.31-.37.36A10.22,10.22,0,0,0,19,20l0,0a3.64,3.64,0,0,1-1.24.9,3.85,3.85,0,0,1-1.54.3h-.3a9.36,9.36,0,0,1-2.31-.47A16.18,16.18,0,0,1,11.7,20a22.16,22.16,0,0,1-4-2.5ZM1.08,4.68a2.48,2.48,0,0,1,.74-1.59L3.43,1.48a1.61,1.61,0,0,1,.44-.31,1.15,1.15,0,0,1,.48-.11,1.29,1.29,0,0,1,.91.43c.26.24.5.49.76.75l.55.56L7.86,4.09a1.79,1.79,0,0,1,.34.45,1,1,0,0,1,0,1A1.78,1.78,0,0,1,7.86,6l-.5.51c-.37.37-.71.72-1.1,1.06l0,0A.7.7,0,0,0,6,8a.83.83,0,0,0,0,.36v0a8.37,8.37,0,0,0,.6,1.17,12.67,12.67,0,0,0,.89,1.26,19.21,19.21,0,0,0,2,2.12,15.56,15.56,0,0,0,2.14,1.64,4.86,4.86,0,0,0,.46.26l.35.18.23.13,0,0,.17.07.16,0a.65.65,0,0,0,.33-.09.94.94,0,0,0,.18-.15l1.62-1.62A1.66,1.66,0,0,1,15.7,13a1.11,1.11,0,0,1,.48-.12,1.06,1.06,0,0,1,.48.12,1.52,1.52,0,0,1,.43.33L19.69,16a1.31,1.31,0,0,1,.44.94,1.4,1.4,0,0,1-.45,1l-.28.29-.35.34a11.61,11.61,0,0,0-.84.87h0a2.58,2.58,0,0,1-.89.64,2.79,2.79,0,0,1-1.1.21H16a8.32,8.32,0,0,1-2.07-.42,15,15,0,0,1-1.73-.71,21,21,0,0,1-3.82-2.38,21.64,21.64,0,0,1-3.26-3.17A23.29,23.29,0,0,1,3,10.66,17.06,17.06,0,0,1,1.63,7.78a9.65,9.65,0,0,1-.47-1.66,5.56,5.56,0,0,1-.08-1.44ZM1.64,4a2.17,2.17,0,0,1,.44-.62L3.69,1.75A1.24,1.24,0,0,1,4,1.51a.79.79,0,0,1,.33-.08A.93.93,0,0,1,5,1.75H5c.25.23.5.48.75.74l.55.56L7.6,4.35a1.44,1.44,0,0,1,.27.36.67.67,0,0,1,0,.64,1.44,1.44,0,0,1-.27.36l-.5.51c-.36.37-.71.72-1.09,1.05l0,0a1.06,1.06,0,0,0-.33.63,1.18,1.18,0,0,0,.07.52l0,0a8.75,8.75,0,0,0,.63,1.22A13,13,0,0,0,7.29,11a19.6,19.6,0,0,0,2,2.16,15.94,15.94,0,0,0,2.19,1.68,5.25,5.25,0,0,0,.49.27l.34.17.22.12.06,0a1.26,1.26,0,0,0,.25.1,1,1,0,0,0,.25,0,1,1,0,0,0,.52-.15,1.31,1.31,0,0,0,.26-.2l1.62-1.62a1.3,1.3,0,0,1,.34-.25.74.74,0,0,1,.32-.08.69.69,0,0,1,.31.08,1.16,1.16,0,0,1,.32.25l2.62,2.61a1,1,0,0,1,.33.67,1.06,1.06,0,0,1-.35.7l-.28.29-.35.34a12,12,0,0,0-.86.9,2.23,2.23,0,0,1-.76.55,2.43,2.43,0,0,1-1,.18H16a8,8,0,0,1-2-.41,14.49,14.49,0,0,1-1.68-.69A20.69,20.69,0,0,1,8.57,16.4a21.32,21.32,0,0,1-3.2-3.11,22.82,22.82,0,0,1-2-2.83A16.73,16.73,0,0,1,2,7.65a9.24,9.24,0,0,1-.46-1.6,5.23,5.23,0,0,1-.08-1.34A2.17,2.17,0,0,1,1.64,4Z"/><path class="cls-1" d="M12.38,9.77a.73.73,0,1,1-1-1l6.08-6.08a.73.73,0,1,1,1,1Z"/><path class="cls-1" d="M15.16,3.83a.74.74,0,0,1,0-1.48H18a.74.74,0,0,1,0,1.48Z"/><path class="cls-1" d="M18.77,6a.74.74,0,1,1-1.48,0V3.08a.74.74,0,1,1,1.48,0Z"/></g></g></svg>