<svg xmlns="http://www.w3.org/2000/svg" viewBox="0 0 33.91 33.87"><defs><style>.cls-1{fill:#fff;fill-rule:evenodd;}</style></defs><title>Ресурс 4</title><g id="Слой_2" data-name="Слой 2"><g id="Layer_1" data-name="Layer 1"><path class="cls-1" d="M32.65,24.14a6.78,6.78,0,0,0-2.36.86A41.64,41.64,0,0,0,26,27.51l-.28.18A5.08,5.08,0,0,1,24,28.4a55.22,55.22,0,0,1-8.52.82h-.29a.42.42,0,1,1-.06-.84l7.52-.72a1.58,1.58,0,0,0-.32-3.15l-6.68-.08A7.42,7.42,0,0,1,14,24.21a10.53,10.53,0,0,0-8,.47,1.56,1.56,0,0,0-1.45-.74l-2.88.19A1.69,1.69,0,0,0,0,25.91l.46,6.4a1.72,1.72,0,0,0,1.85,1.56l2.88-.19a1.53,1.53,0,0,0,1.32-.93l12.66.55a6.78,6.78,0,0,0,4-.67l.36-.19,9.57-5.6a1.58,1.58,0,0,0,.82-1.28,1.3,1.3,0,0,0-1.26-1.42ZM3.38,32.35a.95.95,0,1,1,0-1.9.95.95,0,1,1,0,1.9Z"/><path class="cls-1" d="M25.84,26.13a42.73,42.73,0,0,1,4.11-2.34A9.7,9.7,0,0,1,31,23.31a1.62,1.62,0,0,0-1.56-.13c-1.07.43-3.05,1.38-4.06,1.93a.09.09,0,0,0,0,0,2.93,2.93,0,0,1,.15.65,3.35,3.35,0,0,1,0,.53Z"/><path class="cls-1" d="M28.42,22.54a1.61,1.61,0,0,0-1.54-.12c-.67.26-2.15.74-2.81,1.09a3.3,3.3,0,0,1,.75.65l.13-.09.48-.27C26.14,23.42,27.65,22.89,28.42,22.54Z"/><path class="cls-1" d="M27.46,10.09a5.26,5.26,0,1,0-7.32-4.84s0,.06,0,.08A9.66,9.66,0,0,1,27.46,10.09Z"/><path class="cls-1" d="M19.14,22.55a7.64,7.64,0,1,0-7.64-7.64,7.63,7.63,0,0,0,7.64,7.64Zm-2.67-4.62c.07-.25.14-.51.22-.75s.17-.32.44-.19a4.15,4.15,0,0,0,1.44.43,1.72,1.72,0,0,0,.94-.13A.73.73,0,0,0,19.68,16a2.28,2.28,0,0,0-.53-.32A13.19,13.19,0,0,1,17.68,15a2.09,2.09,0,0,1-1.18-2,2.19,2.19,0,0,1,1.6-2c.39-.14.39-.14.4-.55v-.41c0-.31.06-.36.36-.37h.29c.65,0,.65,0,.66.65,0,.46,0,.46.46.54a4.24,4.24,0,0,1,1,.3.3.3,0,0,1,.2.39c-.08.28-.16.57-.25.85s-.17.3-.43.18a3.3,3.3,0,0,0-1.61-.32,1.11,1.11,0,0,0-.43.09.61.61,0,0,0-.15,1.09,2.88,2.88,0,0,0,.7.39,13.06,13.06,0,0,1,1.28.58,2.29,2.29,0,0,1,.74,3.49,2.42,2.42,0,0,1-1.27.81.36.36,0,0,0-.31.41c0,.22,0,.45,0,.67a.28.28,0,0,1-.3.32h-.73a.3.3,0,0,1-.32-.33c0-.16,0-.33,0-.49,0-.36,0-.38-.37-.43a4.66,4.66,0,0,1-1.3-.37C16.41,18.35,16.38,18.27,16.48,17.93Z"/></g></g></svg>