<svg xmlns="http://www.w3.org/2000/svg" viewBox="0 0 20.4 20.4"><defs><style>.cls-1{fill:#bacedb;fill-rule:evenodd;}</style></defs><title>Ресурс 16</title><g id="Слой_2" data-name="Слой 2"><g id="Layer_1" data-name="Layer 1"><path class="cls-1" d="M4.7,5.11h6.35a.85.85,0,0,0,0-1.7H4.7a.85.85,0,0,0,0,1.7Z"/><path class="cls-1" d="M11.9,7.85A.85.85,0,0,0,11.05,7H4.7a.85.85,0,0,0,0,1.7h6.35A.85.85,0,0,0,11.9,7.85Z"/><path class="cls-1" d="M19.62,7.89A6.5,6.5,0,0,0,15.75,9.3V.85A.85.85,0,0,0,14.91,0H.85A.85.85,0,0,0,0,.85v18.7a.85.85,0,0,0,.85.85H14.9a.85.85,0,0,0,.85-.85V11.46c1.41-1.16,2.76-1.95,3.73-1.87a.85.85,0,0,0,.13-1.7ZM14.05,18.7H1.7V1.7H14.06v8.91a38.25,38.25,0,0,0-4.39,4.56l-1.22-1.1a.85.85,0,0,0-1.14,1.26L9.19,17a.85.85,0,0,0,1.24-.11A51,51,0,0,1,14.06,13V18.7Z"/></g></g></svg>