<svg xmlns="http://www.w3.org/2000/svg" viewBox="0 0 25.49 32.86"><defs><style>.cls-1{fill:#fff;fill-rule:evenodd;}</style></defs><title>Ресурс 8</title><g id="Слой_2" data-name="Слой 2"><g id="Layer_1" data-name="Layer 1"><path class="cls-1" d="M24.61,23.3a10.45,10.45,0,0,1-3.06-7.39V13.31a8.81,8.81,0,0,0-6.67-8.54V2.14a2.14,2.14,0,0,0-4.27,0V4.77a8.81,8.81,0,0,0-6.67,8.54v2.59A10.45,10.45,0,0,1,.88,23.3,3,3,0,0,0,3,28.44H8.32a4.42,4.42,0,1,0,8.84,0h5.31a3,3,0,0,0,2.13-5.14ZM12.75,30.69a2.25,2.25,0,0,1-2.25-2.25H15a2.25,2.25,0,0,1-2.25,2.25Zm10.51-4.94a.84.84,0,0,1-.78.52H3a.84.84,0,0,1-.6-1.44,12.54,12.54,0,0,0,3.7-8.93V13.31a6.63,6.63,0,0,1,13.26,0v2.59a12.54,12.54,0,0,0,3.7,8.93A.84.84,0,0,1,23.26,25.75Z"/></g></g></svg>