<svg xmlns="http://www.w3.org/2000/svg" viewBox="0 0 141.21 49.73"><defs><style>.cls-1{fill:#0094d4;}.cls-1,.cls-2{fill-rule:evenodd;}.cls-2{fill:#fff;}</style></defs><title>Ресурс 1</title><g id="Слой_2" data-name="Слой 2"><g id="Layer_1" data-name="Layer 1"><path class="cls-1" d="M39.08,22.16c-2.18-3.26-4.82-7.48-7-10.65a.24.24,0,0,1,.16-.38,1.09,1.09,0,0,0,1-1,1.53,1.53,0,0,0-.5-1.24,6.47,6.47,0,0,0-1.17-1A5.25,5.25,0,0,1,32.26,9a.84.84,0,0,1-1.09.87c-.34-.13-1.08-2-1.24-2.54,0,0,.45,1.72.47,1.81a.25.25,0,0,1-.37.28c-2-1.24-4.5-3.14-5.13-5.37a.44.44,0,0,1,.1-.41c.59-.65,1.65-.11,2.43.16a6.91,6.91,0,0,0-3-.89c-.74,0-.77.76-.68,1.43A3.4,3.4,0,0,1,23,2.43a.9.9,0,0,1,.77-.77,4.82,4.82,0,0,1,2.62.62,19.94,19.94,0,0,1,6.26,5,6.47,6.47,0,0,1,1.55,3.07c0,.86-.81,1.19-1.66,1.15.94.37,2.3.79,3.13,0a.3.3,0,0,0,.07-.09c.51-1.13-.29-2.33-.85-3.29v0A22.62,22.62,0,0,0,25.75.56h0A5.62,5.62,0,0,0,23.17,0a1.37,1.37,0,0,0-1.06,1.81A9.6,9.6,0,0,0,23.94,5h0a17,17,0,0,0,6.95,5.89A.23.23,0,0,1,31,11c2.06,3.88,4.52,8.47,6.61,12.45a.24.24,0,0,0,.4,0,7.71,7.71,0,0,1,1-1A.23.23,0,0,0,39.08,22.16Z"/><path class="cls-1" d="M33.58,25.07A21.44,21.44,0,0,0,36.43,27a7.63,7.63,0,0,1,.85-2.38c-1.23-.61-2.45-1.22-3.65-1.86C33.6,23.5,33.58,24.26,33.58,25.07Z"/><path class="cls-2" d="M10.15,19.42H5.73l0,0H0V36.86H10.1a5.48,5.48,0,0,0,5.48-5.48V24.84a5.43,5.43,0,0,0-5.43-5.43ZM4.46,22.9h4.3a2,2,0,0,1,2,2v6.43a2,2,0,0,1-2,2H4.46Z"/><path class="cls-2" d="M30.56,31.33l0,0a5,5,0,0,0,2.6-4.43V23.74a4.32,4.32,0,0,0-4.33-4.32H17.62V36.86H22.4V31.49h3.4l3,5.37h4.8l-3-5.53Zm-1.71-4.72h0A1.44,1.44,0,0,1,27.41,28h-5V22.84h5a1.44,1.44,0,0,1,1.44,1.44Z"/><path class="cls-2" d="M84.94,36.86q0-1.71,0-3.43H75.67c0-1.21,0-2.42,0-3.63,2.5,0,4.9-.06,7.33-.08,0-1.13,0-2.26,0-3.39-2.44-.09-4.89,0-7.33-.05,0-1.12,0-2.25,0-3.37,2.93,0,5.87,0,8.8,0h.42q0-1.73,0-3.46H71.13q0,8.71,0,17.42Z"/><path class="cls-2" d="M43.23,25.48a4,4,0,1,1-4,4,4,4,0,0,1,4-4Zm0-.17h0a4.15,4.15,0,1,0,4.15,4.15A4.15,4.15,0,0,0,43.23,25.31Z"/><path class="cls-2" d="M43.17,25a4.57,4.57,0,1,0,4.57,4.57A4.57,4.57,0,0,0,43.17,25ZM43,26.61h0a.67.67,0,1,1-.67.67.67.67,0,0,1,.67-.67Zm.19,4.12h0a1.21,1.21,0,1,1,1.21-1.21A1.21,1.21,0,0,1,43.23,30.72Z"/><path class="cls-2" d="M48.69,33.42a11.63,11.63,0,0,1-1.84-.15,5.21,5.21,0,0,1-8.35-5.9,11.51,11.51,0,0,1-.94-2.26l-.07-.19A7.35,7.35,0,0,0,44,35.69a8,8,0,0,0,5.37-2.29Z"/><path class="cls-1" d="M49.67,33a7.51,7.51,0,0,0,1.68-4.7,7.35,7.35,0,0,0-3.24-6.09h0a7.32,7.32,0,0,0-2-.93l-.45-.12-.09,0a7.86,7.86,0,0,0-4.11.27,8.43,8.43,0,0,0-3.74,3.09,11.2,11.2,0,0,0,.89,2.39,6,6,0,0,1,4.8-2.56,5.21,5.21,0,0,1,5,5.46A7.26,7.26,0,0,1,47.22,33h0l.68.07H48l.71,0h.5Z"/><path class="cls-1" d="M75.75,41.72h0a21.74,21.74,0,0,0-7.16-6.25v1.39a18.71,18.71,0,0,1,5.37,4.59,4.2,4.2,0,0,1,1,2.29.86.86,0,0,1-.64.83,3.55,3.55,0,0,1-2-.39c.67,0,1.42-.18,1.3-.86a6.06,6.06,0,0,0-1.34-2.58c.38.66,1.08,1.55.53,2.19a.47.47,0,0,1-.39.16c-2.3-.2-4.56-2.16-6.09-3.78-.15-.15,0-.38.21-.39s1.81.14,1.86.12a8.27,8.27,0,0,1-2.69-.71.71.71,0,0,1,.11-.86H64.32s0,.08,0,.11a.25.25,0,0,1-.35.21c-1.72-.74-3.72-1.54-5.73-2.33v1.41c2.19.63,4.38,1.2,6.37,1.79a.22.22,0,0,1,.12.08A16.15,16.15,0,0,0,71.6,44.1h0A9.8,9.8,0,0,0,75,45.25,1.37,1.37,0,0,0,76.67,44a4.88,4.88,0,0,0-.92-2.26Zm-8.54-4.26h.2c.16.13.21.19.18.18l-.38-.18ZM52.92,33.32c-.33-.16-.72-.35-.81-.4h0c-.26-.15-.92-.39-1.32-.56h0c-.08.14-.16.27-.24.41l0,0A7.7,7.7,0,0,1,49.61,34h0c.94.4,2.31.8,3.31,1.15Z"/><path class="cls-1" d="M63.09,46.86a17.22,17.22,0,0,0-6.87-5.76h0a4,4,0,0,0-2.13-.4l-.15-.16c-1.78-1.93-3.52-4.1-5.26-6.07a7.67,7.67,0,0,1-2.28,1.19c2,1.9,4.53,3.66,6.63,5.46a1.42,1.42,0,0,0,.38.25,2.89,2.89,0,0,0,.59,1.9c-.15-.63,0-1.27.64-1.38a5,5,0,0,1,2.51.75,15.16,15.16,0,0,1,4.59,4,3.6,3.6,0,0,1,.81,1.85.67.67,0,0,1-.48.67,2.63,2.63,0,0,1-1.56-.32c.51,0,1.08-.14,1-.69A5.16,5.16,0,0,0,60.4,46c.3.54.85,1.26.44,1.78a.34.34,0,0,1-.3.12c-1.76-.17-3.52-1.78-4.72-3.1a.19.19,0,0,1,.16-.31c.07,0,1.39.13,1.42.11a6.17,6.17,0,0,1-2.07-.59.63.63,0,0,1,.51-.92,4,4,0,0,1,.94.38,4.84,4.84,0,0,0-.9-.73,1.19,1.19,0,0,0-1-.21.82.82,0,0,0-.61.87.19.19,0,0,1-.27.17l.5.71.08.1A12.91,12.91,0,0,0,60,48.77h0a7.41,7.41,0,0,0,2.64.95,1,1,0,0,0,1.22-1,4.18,4.18,0,0,0-.74-1.83Z"/><polygon class="cls-2" points="53.3 19.42 57.97 19.42 63.97 29.81 63.97 19.48 68.2 19.48 68.2 36.85 63.89 36.85 57.72 26.42 57.72 36.86 53.32 36.86 53.3 19.42"/><path class="cls-1" d="M20.92,15.24c-2.5-3.17,2.85-2.15,6.26,1.6A4.43,4.43,0,0,1,28.37,19h.25a4.36,4.36,0,0,1,1,.1,3.43,3.43,0,0,0-.82-1.79,15.89,15.89,0,0,0-6.64-4.79,3.89,3.89,0,0,0-1.8-.25,1,1,0,0,0-.65,1.3l1.42,2.13A11.86,11.86,0,0,0,25.14,19h2.57a.64.64,0,0,0,0-.21,1.06,1.06,0,0,0-.4-.83,4.43,4.43,0,0,0-.85-.63c1.18,1.19.1,1.48-.17,1.4s-.84-1.36-1-1.7c0,.05.75,1.75.16,1.44-1.44-.77-3.25-2-3.79-3.47a.31.31,0,0,1,0-.29c.38-.48,1.14-.15,1.69,0C22.28,14.28,20.59,13.57,20.92,15.24Z"/><path class="cls-1" d="M114,31.33l0,0a5,5,0,0,0,2.6-4.43V23.74a4.32,4.32,0,0,0-4.33-4.32H101.09V36.86h4.79V31.49h3.4l3,5.37h4.8l-3-5.53Zm-1.71-4.72h0A1.44,1.44,0,0,1,110.88,28h-5V22.84h5a1.44,1.44,0,0,1,1.44,1.44Z"/><path class="cls-1" d="M98.35,36.86V33.25h-5a2,2,0,0,1-2.09-1.92V25.21a2,2,0,0,1,2.09-2.12h5V19.45h-5c-4.43,0-6.25,2.54-6.25,5.06v7.12c0,2.79,2,5.23,6.25,5.23Z"/><polygon class="cls-1" points="130.39 30.78 126.17 19.42 120.04 19.42 120.04 19.45 119.56 19.45 119.56 36.86 120.04 36.86 123.79 36.86 123.79 25.17 128.29 36.86 130.39 36.86 132.49 36.86 136.99 25.17 136.99 36.86 140.74 36.86 141.21 36.86 141.21 19.45 140.74 19.45 140.74 19.42 134.61 19.42 130.39 30.78"/></g></g></svg>